<svg width="716" height="506" viewBox="0 0 716 506" fill="none" xmlns="http://www.w3.org/2000/svg">
<g filter="url(#filter0_d_422_5)">
<path d="M653.639 381.85C719.099 310.439 742.903 166.131 653.639 146.294C521.275 116.879 586.691 220.68 261.872 166.13C60.6284 132.334 75.9071 332.258 187.486 443.838C299.066 555.417 571.814 471.113 653.639 381.85Z" fill="#FCDDD4"/>
<mask id="mask0_422_5" style="mask-type:alpha" maskUnits="userSpaceOnUse" x="106" y="140" width="606" height="358">
<path d="M653.639 381.849C719.099 310.438 742.903 166.131 653.639 146.294C521.275 116.879 586.691 220.679 261.872 166.13C60.6284 132.334 75.9071 332.258 187.486 443.837C299.066 555.417 571.814 471.112 653.639 381.849Z" fill="#FCDDD4"/>
</mask>
<g mask="url(#mask0_422_5)">
<path opacity="0.7" d="M63.5098 349.019C95.9727 306.807 181.955 224.492 266.184 232.935C371.469 243.488 171.427 441.359 266.184 441.359C360.94 441.359 405.686 198.637 474.122 198.637C542.557 198.637 397.79 378.04 474.122 388.593C550.453 399.146 613.624 135.318 697.852 132.68C782.08 130.042 610.992 349.019 747.863 349.019" stroke="url(#paint0_linear_422_5)" stroke-width="2"/>
<path d="M786.975 446.861C786.975 474.392 771.129 496.635 751.641 496.635H716.307C696.819 496.635 681.155 474.209 681.155 446.861C681.155 419.33 697.001 397.086 716.489 397.086C716.853 397.086 717.036 397.086 717.4 397.086H751.641C771.311 397.086 786.975 419.512 786.975 446.861Z" fill="#402B2B"/>
<path d="M510.135 446.314C510.135 473.845 494.289 496.088 474.801 496.088H439.467C419.979 496.088 404.316 473.662 404.316 446.314C404.316 418.783 420.161 396.539 439.649 396.539C440.014 396.539 440.196 396.539 440.56 396.539H474.801C494.471 396.539 510.135 418.783 510.135 446.314Z" fill="#F48767"/>
<path d="M789.341 442.121L647.095 441.756L663.487 432.093L771.128 432.275L789.341 442.121Z" fill="#402B2B"/>
<path d="M923.573 360.987L923.391 452.331L807.919 452.149L771.128 432.276L663.488 432.093L630.339 451.784L395.388 451.237C391.563 451.237 388.467 448.138 388.467 444.309L388.649 359.893L923.573 360.987Z" fill="#F36F49"/>
<path d="M671.864 381.771L487.545 381.407L487.91 214.216C487.91 207.47 493.374 202 500.295 202L672.41 202.365L671.864 381.771Z" fill="#F48767"/>
<path d="M959.271 382.501L672.047 381.954L672.411 202.547L947.432 203.094C954.171 203.094 959.635 208.564 959.635 215.492L959.271 382.501Z" fill="#F06A5B"/>
<path d="M533.446 446.314C533.446 473.845 549.109 496.088 568.597 496.088H603.749V479.314C616.68 479.314 627.244 464.546 627.244 446.314C627.244 428.081 616.863 413.313 603.931 413.313V396.539H568.779C549.291 396.722 533.628 418.965 533.446 446.314Z" fill="#F48767"/>
<path d="M632.888 446.679C632.888 469.287 619.956 487.52 603.929 487.337C587.901 487.337 575.152 469.105 575.152 446.497C575.152 423.889 588.083 405.656 604.111 405.839C619.956 405.839 632.888 424.071 632.888 446.679Z" fill="#F48767"/>
<path d="M603.932 473.48C593.368 473.48 584.99 461.446 584.99 446.496C584.99 431.545 593.55 419.694 604.114 419.694C614.678 419.694 623.056 431.727 623.056 446.678C623.056 461.629 614.495 473.48 603.932 473.48ZM603.932 430.634C597.739 430.634 592.639 437.744 592.639 446.496C592.639 455.247 597.739 462.54 603.932 462.54C610.124 462.54 615.224 455.43 615.224 446.678C615.224 437.744 610.306 430.634 603.932 430.634Z" fill="#F7A58D"/>
<path d="M603.931 496.271C584.443 496.271 568.779 473.845 568.779 446.496C568.779 419.148 584.625 396.722 604.113 396.722C623.601 396.722 639.265 419.148 639.265 446.496C639.265 473.845 623.237 496.453 603.931 496.271ZM604.113 405.838C588.085 405.838 575.154 424.07 575.154 446.496C575.154 469.104 587.903 487.337 603.931 487.337C619.959 487.337 632.89 469.104 632.89 446.678C632.89 424.07 619.959 405.838 604.113 405.838Z" fill="#F7A58D"/>
<path d="M608.848 446.496C608.848 442.667 606.662 439.75 604.112 439.75C601.562 439.75 599.377 442.85 599.195 446.496C599.195 450.325 601.38 453.242 603.93 453.242C606.662 453.425 608.848 450.325 608.848 446.496Z" fill="#5B2929"/>
<path d="M365.52 310.119C365.52 310.848 364.974 311.395 364.427 311.577C362.97 311.942 357.506 311.942 355.867 311.395C355.138 311.213 354.41 310.666 354.41 309.754C353.864 295.168 353.864 280.947 354.41 267.455C354.41 266.543 355.138 265.996 355.867 265.814C357.688 265.267 364.063 264.902 366.066 265.632C366.795 265.814 367.341 266.543 367.341 267.273C367.706 281.129 367.159 295.351 365.52 310.119Z" fill="#F69276"/>
<path d="M374.443 323.063C374.261 323.063 374.079 323.063 373.714 322.881L361.329 316.682C358.415 315.223 356.594 312.306 356.594 309.024L356.776 263.261C356.776 261.438 358.233 259.979 360.054 259.979H394.113C395.024 259.979 395.57 260.708 395.57 261.438C395.57 262.349 394.842 262.896 394.113 262.896H360.054C359.872 262.896 359.872 263.078 359.872 263.078L359.69 308.842C359.69 311.03 360.965 312.853 362.786 313.765L375.171 319.964C375.9 320.328 376.264 321.24 375.9 321.969C375.536 322.881 374.989 323.063 374.443 323.063Z" fill="#F69276"/>
<path d="M647.095 381.406C647.095 381.406 642.36 381.406 635.074 381.406H606.115C584.441 381.406 579.342 392.163 566.046 418.6L523.973 418.418C523.973 418.418 523.973 415.319 523.973 410.031L363.332 409.667C362.604 396.357 361.146 369.373 361.146 343.848C361.146 342.936 361.146 342.207 361.146 341.295C361.146 334.002 362.421 325.98 364.607 317.958C373.167 286.598 394.841 253.233 403.766 241.017C406.68 237.006 409.23 233.542 411.415 230.442C417.608 222.238 421.797 218.044 429.628 218.044L624.328 218.591C628.335 218.591 631.978 221.326 633.071 225.155C649.827 286.78 647.277 333.637 647.095 381.406ZM482.993 240.288C483.175 239.376 482.447 238.647 481.536 238.647L422.343 238.464C418.883 238.464 415.422 240.288 413.236 243.387C390.106 274.929 380.817 303.736 377.356 320.328L373.714 337.831C373.167 340.383 374.806 342.389 377.356 342.389H391.745C394.113 342.389 396.662 341.295 398.484 339.472L427.989 311.212C431.268 308.112 435.639 306.289 439.828 306.289H475.162L482.993 240.288Z" fill="#F36F49"/>
<path d="M513.594 318.505C512.319 324.34 510.862 330.357 509.587 336.738C508.676 341.114 504.851 344.213 500.48 344.396C442.926 346.401 395.207 346.583 361.149 344.031C361.149 343.119 361.149 342.39 361.149 341.478C361.149 334.185 362.424 326.163 364.609 318.141L513.594 318.505Z" fill="#F6977C"/>
<path d="M619.959 238.83L560.766 238.647C557.306 238.647 554.209 240.47 552.57 243.57C535.996 275.112 532.536 303.919 532.536 320.511V338.014C532.536 340.566 534.539 342.572 537.089 342.572H551.477C553.845 342.572 556.213 341.478 557.67 339.655L581.347 311.395C584.079 308.295 587.904 306.289 592.093 306.472H627.427L621.781 240.47C621.781 239.559 621.052 238.83 619.959 238.83Z" fill="#F36F49"/>
<path d="M647.095 381.406C647.095 381.406 642.36 381.406 635.074 381.406H606.115C584.441 381.406 579.342 392.163 566.046 418.6L523.973 418.418C523.973 418.418 523.973 415.319 523.973 410.031L363.332 409.667C362.604 396.357 361.146 369.373 361.146 343.848C395.205 346.4 443.106 346.4 500.478 344.212C504.849 344.03 508.674 340.93 509.585 336.555C510.86 330.173 512.317 323.974 513.592 318.322C521.423 284.957 529.984 261.073 541.276 235.183C542.186 233.177 540.729 230.807 538.544 230.807L411.415 230.442C417.608 222.238 421.797 218.044 429.628 218.044L624.328 218.591C628.335 218.591 631.978 221.326 633.071 225.155C649.827 286.78 647.277 333.637 647.095 381.406ZM627.607 306.471L621.961 240.47C621.961 239.558 621.05 238.829 620.139 238.829L560.946 238.647C557.486 238.647 554.389 240.47 552.75 243.57C536.176 275.112 532.716 303.919 532.716 320.51V338.013C532.716 340.566 534.719 342.571 537.269 342.571H551.657C554.025 342.571 556.393 341.477 557.85 339.654L581.527 311.394C584.259 308.294 588.084 306.289 592.273 306.471H627.607Z" fill="#F7A58D"/>
<path d="M639.994 376.666C639.994 379.401 637.808 381.407 635.076 381.407H606.117C584.443 381.407 579.344 392.164 566.048 418.601L523.975 418.419C523.975 418.419 523.975 415.319 523.975 410.032L524.157 336.191C524.157 299.543 530.714 276.388 548.017 239.741C550.567 234.272 556.213 230.807 562.223 230.807L624.877 230.99C626.334 230.99 627.427 231.901 627.791 233.178C640.176 280.217 640.176 356.793 639.994 376.666ZM627.609 306.472L621.963 240.471C621.963 239.559 621.052 238.83 620.142 238.83L560.948 238.647C557.488 238.647 554.392 240.471 552.752 243.57C536.178 275.112 532.718 303.919 532.718 320.511V338.014C532.718 340.566 534.721 342.572 537.271 342.572H551.66C554.027 342.572 556.395 341.478 557.852 339.655L581.529 311.394C584.261 308.295 588.086 306.289 592.275 306.472H627.609Z" fill="#F58A6B"/>
<path d="M619.595 241.017L560.766 240.835C558.216 240.835 555.849 242.294 554.574 244.482C537.453 277.118 534.721 306.107 534.721 320.328V337.831C534.721 339.108 535.814 340.202 537.089 340.202H551.477C553.299 340.202 554.938 339.472 556.031 338.196L579.708 309.936C582.804 306.289 587.358 304.102 592.275 304.102H625.059L619.595 241.017ZM619.959 238.83C620.87 238.83 621.781 239.559 621.781 240.47L627.427 306.472H592.093C587.904 306.472 584.079 308.295 581.347 311.395L557.67 339.655C556.213 341.478 553.845 342.572 551.477 342.572H537.089C534.539 342.572 532.536 340.566 532.536 338.014V320.511C532.536 303.919 535.996 275.112 552.57 243.57C554.209 240.47 557.306 238.647 560.766 238.647L619.959 238.83Z" fill="#F7A58D"/>
<path d="M524.155 375.208V410.031L460.591 409.849C461.319 400.733 462.959 391.981 465.691 383.777C466.783 380.495 469.515 378.125 472.976 377.578C487 375.937 504.849 375.208 524.155 375.208ZM395.569 409.849H364.061C363.514 402.192 362.968 389.793 362.421 375.755C370.071 376.119 377.174 376.848 383.549 377.76C387.009 378.307 389.741 380.677 390.834 383.959C393.384 391.981 394.841 400.733 395.569 409.849Z" fill="#F6977C"/>
<path d="M523.974 445.038L376.628 444.673C366.611 444.673 358.415 436.469 358.415 426.441V423.341C358.415 420.424 360.783 418.236 363.515 418.236L523.791 418.601L523.974 445.038Z" fill="#F6977C"/>
<path d="M551.112 445.038H523.974V418.601H565.683L561.129 437.016C560.036 441.756 555.847 445.038 551.112 445.038Z" fill="#F7A58D"/>
<path d="M615.952 348.589C609.759 348.771 597.738 350.048 597.738 354.423C597.738 358.799 608.302 360.258 616.862 360.258C625.423 360.258 626.333 355.517 627.062 353.512C627.608 351.506 628.155 348.407 615.952 348.589Z" fill="#F6977C"/>
<path d="M615.405 353.329C618.319 353.329 621.415 352.418 622.872 350.959C621.779 350.412 620.14 349.865 617.59 349.865C612.855 349.865 605.205 350.412 601.198 352.235C601.745 352.6 603.202 353.329 605.569 353.329C608.484 353.329 612.308 353.329 615.405 353.329Z" fill="#F47B58"/>
<path d="M603.201 356.794C602.108 356.794 601.562 356.976 601.38 357.158C604.658 358.617 610.669 359.164 613.583 359.164C617.772 359.164 620.686 359.164 621.597 358.252C620.868 357.705 619.229 356.794 617.59 356.794C615.404 356.976 604.658 356.794 603.201 356.794Z" fill="#F47B58"/>
<path d="M523.974 410.214C523.974 415.501 523.974 418.601 523.974 418.601L363.879 418.236C363.879 418.236 363.697 415.136 363.333 409.849L523.974 410.214Z" fill="#F58A6B"/>
<g opacity="0.2">
<path d="M454.944 373.384V408.208L401.215 408.026V373.202C401.215 369.008 405.04 365.727 409.775 365.727H446.566C451.12 365.909 454.944 369.373 454.944 373.384Z" fill="#F16036"/>
</g>
<path d="M383.184 406.932H371.892C368.978 406.932 366.428 404.562 366.428 401.462V395.81C366.428 392.893 368.796 390.341 371.892 390.341H383.184C386.099 390.341 388.648 392.711 388.648 395.81V401.462C388.648 404.562 386.099 406.932 383.184 406.932Z" fill="white"/>
<path d="M490.099 407.297H478.807C475.893 407.297 473.343 404.927 473.343 401.827V396.175C473.343 393.258 475.711 390.706 478.807 390.706H490.099C493.014 390.706 495.563 393.076 495.563 396.175V401.827C495.563 404.745 493.196 407.297 490.099 407.297Z" fill="white"/>
<path d="M562.951 310.483C562.951 311.213 562.405 311.76 561.859 311.942C554.755 312.671 547.288 312.671 539.638 311.76C538.728 311.577 538.181 311.03 538.181 310.119C537.635 295.533 537.635 281.312 538.181 267.82C538.181 266.908 538.91 266.361 539.638 266.179C547.47 265.267 555.302 265.267 563.498 266.179C564.226 266.361 564.773 267.09 564.773 267.82C565.319 281.494 564.591 295.715 562.951 310.483Z" fill="#F7A58D"/>
<path d="M534.722 323.428C534.176 323.428 533.63 323.064 533.447 322.517C533.083 321.788 533.447 320.876 534.176 320.511L546.561 314.495C548.382 313.583 549.657 311.577 549.657 309.572L549.839 263.808C549.839 263.626 549.657 263.626 549.657 263.626H542.008C541.097 263.626 540.551 262.897 540.551 262.168C540.551 261.256 541.279 260.709 542.008 260.709H549.657C551.479 260.709 552.936 262.168 552.936 263.991L552.753 309.754C552.753 313.036 550.932 315.953 548.018 317.412L535.633 323.428C535.087 323.428 534.904 323.428 534.722 323.428Z" fill="#F69276"/>
<path d="M451.189 447.197L399.646 447.085L399.679 431.587L451.223 431.699L451.189 447.197Z" fill="#F8B4A0"/>
<path opacity="0.6" d="M541.628 235.734C530.335 261.624 521.957 285.509 513.943 318.874L364.959 318.509C373.519 287.15 395.193 253.784 404.117 241.569C407.031 237.558 409.581 234.093 411.767 230.994L538.896 231.359C541.081 231.541 542.538 233.729 541.628 235.734Z" fill="url(#paint1_linear_422_5)"/>
<path d="M300.305 253.535C300.305 253.535 296.099 384.393 300.19 531.503C300.19 531.503 312.462 543.134 335.714 535.38C335.714 535.38 335.498 371.685 341.742 306.638C341.742 306.638 371.022 430.271 408.053 537.319C408.053 537.319 432.812 542.057 441.639 528.057C441.639 528.057 391.69 354.669 384.37 254.944L300.305 253.535Z" fill="url(#paint2_linear_422_5)"/>
<path d="M300.619 254.944H384.369C385.015 262.482 385.661 270.452 386.737 278.637C336.789 278.852 310.308 266.144 300.404 260.329C300.404 256.667 300.619 254.944 300.619 254.944Z" fill="#402B2B" fill-opacity="0.45" style="mix-blend-mode:multiply"/>
</g>
<path d="M309.021 38.045H329.689L332.488 25.5524C332.488 25.5524 324.307 30.291 322.369 27.0602C320.432 23.8294 320.862 25.1217 318.925 25.5524C316.987 25.9832 316.987 23.3986 314.619 24.9063C312.035 26.6294 308.16 34.8141 309.021 38.045Z" fill="#6B1912"/>
<path d="M268.632 194.023L280.41 165.508L313.528 177.922C312.386 187.056 292.187 204.561 280.41 216.959L268.632 194.023Z" fill="url(#paint3_linear_422_5)"/>
<path d="M296.216 110.923C296.216 110.923 278.081 143.814 267.452 192.165C264.182 207.043 264.973 214.729 269.932 218.201C276.131 222.54 287.287 218.82 292.866 207.043C298.547 194.026 309.048 165.792 311.404 152.222C311.404 152.222 307.328 113.362 296.216 110.923Z" fill="url(#paint4_linear_422_5)"/>
<path d="M296.104 110.415C296.104 110.415 297.181 135.184 300.41 254.295C300.41 254.295 329.69 269.156 388.035 258.818C388.035 258.818 388.251 223.063 396.216 191.401C396.216 191.401 411.072 131.738 403.536 114.292C403.536 114.292 355.956 84.7834 296.104 110.415Z" fill="url(#paint5_linear_422_5)"/>
<path d="M341.315 86.8077L340.884 102.23C340.884 102.23 344.544 107.615 353.371 108.261C362.198 108.692 366.504 103.738 366.504 103.738L367.365 80.7769C356.385 85.5154 345.621 87.4539 341.315 86.8077Z" fill="url(#paint6_linear_422_5)"/>
<path d="M342.177 80.4761L341.316 97.4918C345.622 98.138 356.386 96.1995 367.151 91.4609L367.797 80.4761H342.177Z" fill="url(#paint7_linear_422_5)" style="mix-blend-mode:multiply"/>
<path d="M400.522 147.892C400.522 147.892 387.82 176.539 383.298 189.462C378.777 202.17 378.777 252.786 355.095 262.479C355.095 262.479 380.284 260.971 388.25 258.817C388.25 258.817 388.681 220.693 396.431 191.4C396.431 191.4 401.814 160.6 403.967 146.6L400.522 147.892Z" fill="#EE4D47" fill-opacity="0.29" style="mix-blend-mode:multiply"/>
<path d="M383.729 42.9995C383.299 43.2149 382.868 50.1073 382.868 50.1073L381.146 64.5383L373.18 70.7846L368.659 72.7231C368.659 72.7231 361.985 69.923 362.846 67.3384C363.707 64.9691 368.013 30.9377 368.874 30.9377C369.735 30.9377 376.625 35.8916 376.625 35.8916L383.729 42.9995Z" fill="#402B2B"/>
<path d="M320.649 30.0754C318.711 30.0754 321.725 53.7682 321.725 53.7682L325.17 44.2911L327.538 32.8755L320.649 30.0754Z" fill="#402B2B"/>
<path d="M323.878 34.8125L320.218 65.1823C320.218 65.1823 318.926 90.8136 340.025 92.3213C361.124 93.6136 375.549 72.7209 375.549 72.7209C375.549 72.7209 378.132 75.7363 380.931 70.567C383.514 65.3977 381.792 58.5053 378.132 57.8591C374.257 57.4283 372.534 59.5822 372.104 62.813C371.673 66.0438 371.243 68.4131 371.243 68.4131L368.013 67.9824L370.381 42.9973C370.381 42.9973 365.43 33.3048 359.832 31.3663C354.234 29.4278 349.283 37.1818 349.283 37.1818C349.283 37.1818 344.116 38.2587 339.164 37.1818C334.212 36.1048 330.983 34.8125 330.983 34.8125C330.983 34.8125 327.968 35.674 323.878 34.8125Z" fill="url(#paint8_linear_422_5)"/>
<path d="M339.977 210.76C339.977 210.76 307.124 205.801 307.124 200.842C307.124 195.883 313.942 184.105 318.901 170.468C323.86 156.831 328.2 135.135 330.059 130.795C331.919 126.456 324.48 138.854 324.48 138.854C312.289 154.764 287.411 187.701 285.428 192.164C283.444 196.627 282.535 207.248 282.328 212L291.007 216.959L316.422 213.86L339.977 210.76Z" fill="#EE4D47" fill-opacity="0.29" style="mix-blend-mode:multiply"/>
<path d="M329.38 79.3455C329.38 76.8657 331.907 73.1598 336.199 74.3862C340.538 75.6264 341.571 79.3453 341.778 81.8248" stroke="#893D43"/>
<path d="M323.182 115.299C323.182 115.299 269.253 184.745 268.013 195.884C266.773 207.023 265.871 218.009 277.142 219.365C288.412 220.722 299.119 202.975 303.064 193.932L312.024 171.088L330.62 125.837L323.182 115.299Z" fill="url(#paint9_linear_422_5)"/>
<path d="M330.679 130.175C330.679 123.976 323.24 121.497 317.041 121.497L278.609 174.807C270.757 185.758 257.285 211.008 271.17 219.439C285.056 227.869 300.511 206.421 305.884 195.263C308.859 188.32 323.654 148.978 330.679 130.175Z" fill="url(#paint10_linear_422_5)"/>
<path d="M323.241 116.538C323.241 116.538 319.453 101.816 323.477 92.2366C323.477 92.2366 325.673 87.9526 328.041 89.7939C330.678 91.4915 332.75 87.6197 335.387 89.3173C338.023 91.0149 340.133 88.5043 342.746 91.7691C342.746 91.7691 345.719 90.8692 347.425 93.41C349.132 95.9508 353.039 101.632 352.19 102.949C351.341 104.267 348.459 110.818 347.715 111.043C346.972 111.268 345.611 111.306 344.997 108.871C344.997 108.871 344.93 111.325 343.645 114.085C342.565 116.907 339.051 120.342 339.051 120.342L330.059 126.455L323.241 116.538Z" fill="url(#paint11_linear_422_5)"/>
<path d="M346.051 27.0598V5.09009C359.184 5.73625 372.748 8.32089 379.422 16.5057C387.388 26.1982 382.867 48.5987 382.867 48.5987C382.867 48.5987 373.178 47.5217 371.456 44.2909C369.734 41.0601 353.371 36.5368 340.884 37.183C328.397 37.8292 322.369 36.5369 316.125 31.1522C314.833 30.0752 313.757 28.5675 312.896 26.8444H346.051V27.0598Z" fill="#402B2B"/>
<path d="M384.374 40.4139C384.374 40.4139 375.116 37.3984 359.615 36.1061C333.564 25.1213 322.369 27.0598 322.369 27.0598C322.369 27.0598 322.584 18.6596 324.952 12.8441C327.321 7.02862 343.253 -1.15615 356.601 0.136188C369.949 1.42852 383.728 11.3364 385.881 20.8135C387.603 28.1367 384.374 40.4139 384.374 40.4139Z" fill="url(#paint12_linear_422_5)"/>
<path d="M368.658 37.1858C365.859 23.8317 345.837 17.1547 331.627 17.37C317.633 17.5854 307.73 29.2164 306.223 37.1858C305.577 40.4166 308.16 40.8474 309.022 38.0473C309.667 36.1088 310.959 26.8471 323.877 27.9241C336.795 29.001 336.149 40.632 342.608 41.709C348.636 42.7859 355.525 38.4781 368.658 37.1858Z" fill="url(#paint13_linear_422_5)"/>
<path d="M324.543 45.1001L323.872 43.7499C324.451 43.4625 328.598 40.6804 334.571 39.1555L335.433 41.3731C330.327 42.2262 324.543 45.1001 324.543 45.1001Z" fill="#402B2B"/>
<path d="M361.193 50.7672C358.613 47.1616 352.459 43.0547 352.551 42.8601L354.252 41.2821C354.446 41.3743 359.925 45.3994 362.617 49.7733L361.193 50.7672Z" fill="#402B2B"/>
<path d="M340.241 52.907C340.241 52.907 339.595 57.4301 337.873 58.7225C336.151 60.0148 333.136 61.0917 332.706 62.1687C332.275 63.0303 333.136 64.7534 335.074 65.3995C337.012 66.0457 337.227 66.6919 337.227 66.6919C337.227 66.6919 333.352 67.1227 331.414 64.7534C329.476 62.3841 331.629 60.4456 333.567 59.3687C335.505 58.2917 336.366 57.8609 337.227 57.2148C338.304 56.5686 340.241 52.907 340.241 52.907Z" fill="#D87C60"/>
<path d="M349.496 55.2738C349.496 57.4277 351.003 59.3662 352.941 59.3662C354.879 59.3662 356.386 57.6431 356.386 55.2738C356.386 53.1199 354.879 51.1814 352.941 51.1814C351.003 51.1814 349.496 52.9045 349.496 55.2738Z" fill="#402B2B"/>
<path d="M325.815 52.4745C325.815 54.6283 327.322 56.5668 329.259 56.5668C331.197 56.5668 332.704 54.8437 332.704 52.4745C332.704 50.3206 331.197 48.3821 329.259 48.3821C327.322 48.5975 325.815 50.3206 325.815 52.4745Z" fill="#402B2B"/>
<path d="M314.136 220.68C312.483 217.993 309.425 210.513 310.416 202.083C312.483 204.976 316.119 212.745 314.136 220.68Z" fill="#644545"/>
<path fill-rule="evenodd" clip-rule="evenodd" d="M389.111 210.571C404.828 187.739 406.98 118.6 406.98 118.6C392.519 120.48 385.612 134.795 381.175 143.992C379.007 148.486 377.428 151.758 375.846 151.758L369.186 194.098L302.583 205.991C302.528 206.068 302.473 206.145 302.418 206.221C299.138 206.307 287.753 206.949 280.317 211.684C280.317 211.684 276.465 214.571 278.679 216.595C279.738 217.752 279.401 219.004 279.063 220.256C278.726 221.508 278.389 222.759 279.448 223.916C280.341 224.891 280.481 225.901 280.618 226.894C280.806 228.255 280.99 229.586 283.105 230.756C283.105 230.756 282.719 233.838 285.511 235.092C285.638 235.149 285.772 235.209 285.912 235.272C288.861 236.6 294.614 239.191 295.717 238.18C296.132 237.8 297.167 237.049 298.327 236.206C300.401 234.699 302.879 232.9 302.941 232.406C303.037 231.635 302.845 230.287 300.341 230.092C300.341 230.092 302.749 229.612 305.253 227.88C307.853 226.341 310.646 222.297 310.646 222.297L313.18 216.509C374.887 221.769 389.111 210.571 389.111 210.571Z" fill="url(#paint14_linear_422_5)"/>
<path d="M371.027 150.263L364.998 181.925L362.294 189.894L310.223 202.083C311.67 204.769 314.439 212.249 313.943 220.68C325.514 221.919 357.707 222.043 379.031 217.58C384.759 216.48 391.428 210.761 399.876 189.894C419.037 123.985 403.536 114.293 403.536 114.293C382.007 117.093 371.027 150.263 371.027 150.263Z" fill="url(#paint15_linear_422_5)"/>
<path d="M233.977 178.527C233.977 178.527 258.678 203.943 238.317 209.522C217.955 215.101 198.69 198.686 172.655 203.135C128.023 210.761 54.736 220.679 15.0634 146.293C-34.5274 53.3101 94.8899 16.1171 160.116 16.1174C238.363 16.1178 269.216 49.5912 276.655 95.4627C282.606 132.16 250.094 167.369 233.977 178.527Z" fill="url(#paint16_linear_422_5)"/>
<path d="M139.914 127.236L141.108 101.658C145.888 100.418 149.879 98.1422 153.081 94.8313C156.282 91.5203 158.135 87.3201 158.638 82.2307C159.231 76.243 158.616 71.4459 156.792 67.8392C154.979 64.1328 152.453 62.1193 149.214 61.7988C146.369 61.5171 144.062 62.2966 142.294 64.137C140.624 65.9872 139.18 68.5651 137.961 71.8707L135.336 78.8665C134.117 82.1721 132.354 84.4665 130.047 85.7497C127.848 86.9429 125.585 87.2732 123.26 86.7408C121.032 86.218 119.173 84.9759 117.683 83.0145C116.202 80.9534 115.619 78.3261 115.936 75.1327C116.331 71.1409 118.094 67.8388 121.227 65.2265C124.457 62.6238 128.409 60.7475 133.081 59.5975C137.753 58.4476 142.543 58.1154 147.45 58.601C157.362 59.5819 164.902 62.4948 170.072 67.3395C175.339 72.1939 177.548 78.9123 176.699 87.4946C176.116 93.3824 174.199 98.2313 170.948 102.041C167.697 105.851 163.686 108.83 158.915 110.978C154.252 113.036 149.447 114.525 144.5 115.446L142.564 127.499L139.914 127.236ZM136.506 163.177C132.973 162.827 130.054 161.279 127.75 158.531C125.543 155.794 124.618 152.628 124.973 149.036C125.319 145.543 126.842 142.671 129.542 140.419C132.351 138.076 135.521 137.08 139.054 137.43C142.685 137.789 145.55 139.383 147.649 142.21C149.855 144.948 150.786 148.063 150.44 151.556C150.084 155.149 148.556 158.071 145.856 160.323C143.254 162.585 140.137 163.536 136.506 163.177Z" fill="white"/>
</g>
<defs>
<filter id="filter0_d_422_5" x="0" y="0" width="716" height="505.221" filterUnits="userSpaceOnUse" color-interpolation-filters="sRGB">
<feFlood flood-opacity="0" result="BackgroundImageFix"/>
<feColorMatrix in="SourceAlpha" type="matrix" values="0 0 0 0 0 0 0 0 0 0 0 0 0 0 0 0 0 0 127 0" result="hardAlpha"/>
<feOffset dy="4"/>
<feGaussianBlur stdDeviation="2"/>
<feComposite in2="hardAlpha" operator="out"/>
<feColorMatrix type="matrix" values="0 0 0 0 0 0 0 0 0 0 0 0 0 0 0 0 0 0 0.25 0"/>
<feBlend mode="normal" in2="BackgroundImageFix" result="effect1_dropShadow_422_5"/>
<feBlend mode="normal" in="SourceGraphic" in2="effect1_dropShadow_422_5" result="shape"/>
</filter>
<linearGradient id="paint0_linear_422_5" x1="405.686" y1="205.737" x2="405.686" y2="509.4" gradientUnits="userSpaceOnUse">
<stop stop-color="#F37753"/>
<stop offset="1" stop-color="white" stop-opacity="0"/>
</linearGradient>
<linearGradient id="paint1_linear_422_5" x1="472.128" y1="203.103" x2="400.756" y2="374.02" gradientUnits="userSpaceOnUse">
<stop stop-color="#F7A58D"/>
<stop offset="0.926161" stop-color="white"/>
</linearGradient>
<linearGradient id="paint2_linear_422_5" x1="370.058" y1="174.86" x2="370.058" y2="538.091" gradientUnits="userSpaceOnUse">
<stop stop-color="#822626"/>
<stop offset="0.943497" stop-color="#402B2B"/>
</linearGradient>
<linearGradient id="paint3_linear_422_5" x1="287.001" y1="169.358" x2="287.001" y2="225.997" gradientUnits="userSpaceOnUse">
<stop stop-color="#FFB3B6"/>
<stop offset="1" stop-color="#FFC8C1"/>
</linearGradient>
<linearGradient id="paint4_linear_422_5" x1="311.463" y1="115.92" x2="311.463" y2="227.499" gradientUnits="userSpaceOnUse">
<stop stop-color="#F4A984"/>
<stop offset="1" stop-color="#EE4D47"/>
</linearGradient>
<linearGradient id="paint5_linear_422_5" x1="350.887" y1="38.0578" x2="350.887" y2="256.894" gradientUnits="userSpaceOnUse">
<stop stop-color="#F4A984"/>
<stop offset="1" stop-color="#EE4D47"/>
</linearGradient>
<linearGradient id="paint6_linear_422_5" x1="362.947" y1="101.119" x2="341.16" y2="110.516" gradientUnits="userSpaceOnUse">
<stop stop-color="#FFB3B6"/>
<stop offset="1" stop-color="#FFC8C1"/>
</linearGradient>
<linearGradient id="paint7_linear_422_5" x1="363.379" y1="90.3125" x2="341.469" y2="99.5913" gradientUnits="userSpaceOnUse">
<stop stop-color="#FFB3B6" stop-opacity="0.31"/>
<stop offset="1" stop-color="#FFC8C1"/>
</linearGradient>
<linearGradient id="paint8_linear_422_5" x1="317.412" y1="84.9467" x2="322.072" y2="43.3041" gradientUnits="userSpaceOnUse">
<stop stop-color="#FFB3B6"/>
<stop offset="1" stop-color="#FFC8C1"/>
</linearGradient>
<linearGradient id="paint9_linear_422_5" x1="306.657" y1="90.5034" x2="306.657" y2="217.367" gradientUnits="userSpaceOnUse">
<stop stop-color="#FFB3B6"/>
<stop offset="1" stop-color="#FFC8C1"/>
</linearGradient>
<linearGradient id="paint10_linear_422_5" x1="279.848" y1="147.532" x2="326.29" y2="215.753" gradientUnits="userSpaceOnUse">
<stop stop-color="#F4A984"/>
<stop offset="0.91698" stop-color="#EE4D47"/>
</linearGradient>
<linearGradient id="paint11_linear_422_5" x1="333.5" y1="114" x2="351" y2="84" gradientUnits="userSpaceOnUse">
<stop stop-color="#FFB3B6"/>
<stop offset="1" stop-color="#FFC8C1"/>
</linearGradient>
<linearGradient id="paint12_linear_422_5" x1="354.378" y1="-21.7021" x2="354.378" y2="40.9239" gradientUnits="userSpaceOnUse">
<stop stop-color="#F4A984"/>
<stop offset="1" stop-color="#EE4D47"/>
</linearGradient>
<linearGradient id="paint13_linear_422_5" x1="356.015" y1="11.1638" x2="356.015" y2="76.27" gradientUnits="userSpaceOnUse">
<stop stop-color="#F4A984"/>
<stop offset="1" stop-color="#EE4D47"/>
</linearGradient>
<linearGradient id="paint14_linear_422_5" x1="385.777" y1="178.577" x2="274.166" y2="215.78" gradientUnits="userSpaceOnUse">
<stop stop-color="#FFB3B6"/>
<stop offset="1" stop-color="#FFC8C1"/>
</linearGradient>
<linearGradient id="paint15_linear_422_5" x1="352.995" y1="153.112" x2="400.107" y2="224.399" gradientUnits="userSpaceOnUse">
<stop stop-color="#F4A984"/>
<stop offset="1" stop-color="#EE4D47"/>
</linearGradient>
<linearGradient id="paint16_linear_422_5" x1="43.6726" y1="-106.62" x2="272.334" y2="226.785" gradientUnits="userSpaceOnUse">
<stop stop-color="#F4A984"/>
<stop offset="1" stop-color="#EE4D47"/>
</linearGradient>
</defs>
</svg>
